<?xml version="1.0" encoding="UTF-8" standalone="no"?>
<svg
   viewBox="0 0 600 600"
   version="1.1"
   id="svg9724"
   sodipodi:docname="home.svg"
   inkscape:version="1.2.2 (1:1.2.2+202212051550+b0a8486541)"
   width="600"
   height="600"
   xmlns:inkscape="http://www.inkscape.org/namespaces/inkscape"
   xmlns:sodipodi="http://sodipodi.sourceforge.net/DTD/sodipodi-0.dtd"
   xmlns="http://www.w3.org/2000/svg"
   xmlns:svg="http://www.w3.org/2000/svg">
  <defs
     id="defs9728" />
  <sodipodi:namedview
     id="namedview9726"
     pagecolor="#ffffff"
     bordercolor="#666666"
     borderopacity="1.0"
     inkscape:showpageshadow="2"
     inkscape:pageopacity="0.0"
     inkscape:pagecheckerboard="0"
     inkscape:deskcolor="#d1d1d1"
     showgrid="true"
     inkscape:zoom="0.84179692"
     inkscape:cx="18.412992"
     inkscape:cy="240.55683"
     inkscape:window-width="1920"
     inkscape:window-height="1009"
     inkscape:window-x="0"
     inkscape:window-y="1080"
     inkscape:window-maximized="1"
     inkscape:current-layer="g11314"
     showguides="true">
    <inkscape:grid
       type="xygrid"
       id="grid9972"
       originx="0"
       originy="0" />
    <sodipodi:guide
       position="300,720"
       orientation="1,0"
       id="guide1112"
       inkscape:locked="false" />
  </sodipodi:namedview>
  <!--! Font Awesome Pro 6.2.1 by @fontawesome - https://fontawesome.com License - https://fontawesome.com/license (Commercial License) Copyright 2022 Fonticons, Inc. -->
  <g
     id="g10449"
     transform="matrix(0.95173205,0,0,0.95115787,13.901174,12.168794)"
     style="stroke-width:1.05103">
    <g
       id="path10026"
       inkscape:transform-center-x="-0.59233046"
       inkscape:transform-center-y="-20.347403"
       transform="matrix(1.3807551,0,0,1.2700888,273.60014,263.99768)" />
    <g
       id="g11314"
       transform="matrix(1.5092301,0,0,1.3955555,36.774048,-9.4503933)"
       style="stroke-width:50.6951">
      <path
         style="color:#000000;fill:#000000;stroke-linecap:round;stroke-linejoin:round;-inkscape-stroke:none;paint-order:stroke fill markers"
         d="m 43.017578,283.87891 c -18.832626,0 -36.3980486,5.06353 -50.8085936,15.21679 -14.4105454,10.15326 -26.3750004,27.27951 -26.3750004,47.72266 v 39.86133 c 0,20.44315 11.964454,37.5694 26.3750004,47.72265 14.4105462,10.15326 31.9759706,15.21485 50.8085936,15.21485 H 306.36719 c 18.83262,0 36.39804,-5.06159 50.80859,-15.21485 14.41055,-10.15325 26.375,-27.2795 26.375,-47.72265 v -39.86133 c 0,-20.44315 -11.96445,-37.5694 -26.375,-47.72266 -14.41054,-10.15326 -31.97597,-15.21679 -50.80859,-15.21679 z m 0,57.9375 H 306.36719 c 7.87834,0 14.42036,2.51346 17.43945,4.64062 1.34025,0.9443 1.65782,1.29128 1.80664,1.41016 v 37.76367 c -0.14882,0.11888 -0.46639,0.46586 -1.80664,1.41016 -3.01909,2.12716 -9.5611,4.64062 -17.43945,4.64062 H 43.017578 c -7.878348,0 -14.420367,-2.51346 -17.439453,-4.64062 -1.340247,-0.9443 -1.657817,-1.29128 -1.806641,-1.41016 v -37.76367 c 0.148825,-0.11888 0.466394,-0.46586 1.806641,-1.41016 3.019087,-2.12716 9.561108,-4.64062 17.439453,-4.64062 z"
         id="rect343" />
      <path
         style="color:#000000;fill:#000000;stroke-linecap:round;stroke-linejoin:round;-inkscape-stroke:none"
         d="M 174.81445,-2.3945313 A 28.971347,28.971347 0 0 0 153.74414,6.6914062 L -26.152344,197.36328 a 28.971347,28.971347 0 0 0 21.0722659,48.84961 H 188.66797 354.70898 A 28.971347,28.971347 0 0 0 375.7793,197.36328 L 195.88477,6.6914062 a 28.971347,28.971347 0 0 0 -21.07032,-9.0859375 z m 0,71.1777343 112.73828,119.492187 H 188.66797 62.076172 Z"
         id="path1110" />
    </g>
  </g>
</svg>
