<?xml version="1.0" encoding="UTF-8" standalone="no"?>
<svg
   viewBox="0 0 576 512"
   version="1.1"
   id="svg9724"
   sodipodi:docname="house.svg"
   inkscape:version="1.2.2 (1:1.2.2+202212051550+b0a8486541)"
   xmlns:inkscape="http://www.inkscape.org/namespaces/inkscape"
   xmlns:sodipodi="http://sodipodi.sourceforge.net/DTD/sodipodi-0.dtd"
   xmlns="http://www.w3.org/2000/svg"
   xmlns:svg="http://www.w3.org/2000/svg">
  <defs
     id="defs9728" />
  <sodipodi:namedview
     id="namedview9726"
     pagecolor="#ffffff"
     bordercolor="#666666"
     borderopacity="1.0"
     inkscape:showpageshadow="2"
     inkscape:pageopacity="0.0"
     inkscape:pagecheckerboard="0"
     inkscape:deskcolor="#d1d1d1"
     showgrid="false"
     inkscape:zoom="1.1904806"
     inkscape:cx="111.29959"
     inkscape:cy="275.93898"
     inkscape:window-width="1920"
     inkscape:window-height="1009"
     inkscape:window-x="0"
     inkscape:window-y="1080"
     inkscape:window-maximized="1"
     inkscape:current-layer="g11314">
    <inkscape:grid
       type="xygrid"
       id="grid9972" />
  </sodipodi:namedview>
  <!--! Font Awesome Pro 6.2.1 by @fontawesome - https://fontawesome.com License - https://fontawesome.com/license (Commercial License) Copyright 2022 Fonticons, Inc. -->
  <g
     id="g10449"
     transform="matrix(0.95173205,0,0,0.95115787,13.901174,12.168794)"
     style="stroke-width:1.05103">
    <g
       id="path10026"
       inkscape:transform-center-x="-0.59233046"
       inkscape:transform-center-y="-20.347403"
       transform="matrix(1.3807551,0,0,1.2700888,273.60014,263.99768)" />
    <g
       id="g11314"
       transform="matrix(1.5092301,0,0,1.3955555,36.774048,-9.4503933)"
       style="stroke-width:50.6951">
      <path
         id="rect11310"
         style="color:#000000;fill:#000000;stroke-linecap:round;stroke-linejoin:round;-inkscape-stroke:none;paint-order:stroke fill markers"
         d="M 165.43714 0.0027239184 A 25.342333 25.357632 0.00060958089 0 0 152.28697 4.7170848 L -21.610425 129.83157 A 25.342333 25.357632 0.00060958089 0 0 -30.954644 158.1354 L 34.226455 362.28312 A 25.342333 25.357632 0.00060958089 0 0 58.241045 379.92077 L 103.66766 380.14442 A 25.350084 25.350084 0 0 0 107.4165 380.73887 L 223.86707 380.73887 L 272.42247 380.97871 A 25.342333 25.357632 0.00060958089 0 0 296.60703 363.57795 L 363.79784 160.08059 A 25.342333 25.357632 0.00060958089 0 0 354.73237 131.68848 L 182.07507 4.8642247 A 25.342333 25.357632 0.00060958089 0 0 172.47114 0.5294846 A 25.342333 25.357632 0.00060958089 0 0 165.43714 0.0027239184 z M 166.92607 56.644211 L 309.89997 161.66528 L 254.26297 330.17573 L 250.73306 330.15807 L 250.73306 194.9233 A 25.350084 25.350084 0 0 0 225.38455 169.57552 L 107.4165 169.57552 A 25.350084 25.350084 0 0 0 82.067989 194.9233 L 82.067989 329.3282 L 76.899569 329.30319 L 22.922832 160.24832 L 166.92607 56.644211 z M 132.76364 220.27109 L 200.0374 220.27109 L 200.0374 329.9094 L 132.76364 329.57834 L 132.76364 220.27109 z " />
    </g>
  </g>
</svg>
