<?xml version="1.0" encoding="UTF-8" standalone="no"?>
<svg
   viewBox="0 0 600 600"
   version="1.1"
   id="svg9724"
   sodipodi:docname="settings.svg"
   inkscape:version="1.2.2 (1:1.2.2+202212051550+b0a8486541)"
   width="600"
   height="600"
   xmlns:inkscape="http://www.inkscape.org/namespaces/inkscape"
   xmlns:sodipodi="http://sodipodi.sourceforge.net/DTD/sodipodi-0.dtd"
   xmlns="http://www.w3.org/2000/svg"
   xmlns:svg="http://www.w3.org/2000/svg">
  <defs
     id="defs9728" />
  <sodipodi:namedview
     id="namedview9726"
     pagecolor="#ffffff"
     bordercolor="#666666"
     borderopacity="1.0"
     inkscape:showpageshadow="2"
     inkscape:pageopacity="0.0"
     inkscape:pagecheckerboard="0"
     inkscape:deskcolor="#d1d1d1"
     showgrid="true"
     inkscape:zoom="0.59480854"
     inkscape:cx="9.2466729"
     inkscape:cy="468.21789"
     inkscape:window-width="1920"
     inkscape:window-height="1009"
     inkscape:window-x="0"
     inkscape:window-y="1080"
     inkscape:window-maximized="1"
     inkscape:current-layer="g10449"
     showguides="true">
    <inkscape:grid
       type="xygrid"
       id="grid9972"
       originx="0"
       originy="0" />
  </sodipodi:namedview>
  <!--! Font Awesome Pro 6.2.1 by @fontawesome - https://fontawesome.com License - https://fontawesome.com/license (Commercial License) Copyright 2022 Fonticons, Inc. -->
  <g
     id="g10449"
     transform="matrix(0.95173205,0,0,0.95115787,13.901174,12.168794)"
     style="stroke-width:1.05103">
    <g
       id="path10026"
       inkscape:transform-center-x="-0.59233046"
       inkscape:transform-center-y="-20.347403"
       transform="matrix(1.3807551,0,0,1.2700888,273.60014,263.99768)" />
    <g
       id="g11314"
       transform="matrix(1.5092301,0,0,1.3955555,36.774048,-9.4503933)"
       style="stroke-width:50.6951" />
    <path
       style="color:#000000;fill:#000000;stroke-linecap:square;stroke-linejoin:round;-inkscape-stroke:none;paint-order:stroke fill markers"
       d="m 171.74414,-170.32422 a 25.130162,25.130162 0 0 0 -17.81641,14.76367 l -23.55468,55.689456 -40.843753,-44.587886 a 25.130162,25.130162 0 0 0 -43.65625,16.78515 L 45.421875,-67.207031 -9.3769531,-92.771484 A 25.130162,25.130162 0 0 0 -43.285156,-60.556641 L -20.5625,-4.5214844 -80.972656,-7.1699219 A 25.130162,25.130162 0 0 0 -99.974609,35.568359 l 42.4375,43.076172 -56.824221,20.669922 a 25.130162,25.130162 0 0 0 -1.19922,46.757817 l 55.689456,23.55468 -44.587886,40.84375 a 25.130162,25.130162 0 0 0 16.785152,43.65625 l 60.466797,0.45117 -25.564453,54.79883 a 25.130162,25.130162 0 0 0 32.214843,33.90821 l 56.035157,-22.72266 -2.648438,60.41016 a 25.130162,25.130162 0 0 0 42.738281,19.00195 l 43.076171,-42.4375 20.66992,56.82422 a 25.130162,25.130162 0 0 0 46.75782,1.19922 l 23.55468,-55.68946 40.84375,44.58789 a 25.130162,25.130162 0 0 0 43.65625,-16.78515 l 0.45117,-60.4668 54.79883,25.56445 a 25.130162,25.130162 0 0 0 33.90821,-32.21484 l -22.72266,-56.03516 60.41016,2.64844 a 25.130162,25.130162 0 0 0 19.00195,-42.73828 l -42.4375,-43.07617 56.82422,-20.66992 a 25.130162,25.130162 0 0 0 1.19922,-46.75782 L 399.87109,90.373047 444.45898,49.529297 A 25.130162,25.130162 0 0 0 427.67383,5.8730469 l -60.4668,-0.4511719 25.56445,-54.798828 a 25.130162,25.130162 0 0 0 -32.21484,-33.908203 l -56.03516,22.722656 2.64844,-60.41016 a 25.130162,25.130162 0 0 0 -42.73828,-19.00195 l -43.07617,42.437501 -20.66992,-56.824221 a 25.130162,25.130162 0 0 0 -28.94141,-15.96289 z m 3.56641,93.216798 12.19336,33.521485 a 25.130162,25.130162 0 0 0 41.24804,9.310546 l 25.41016,-25.033203 -1.5625,35.634766 A 25.130162,25.130162 0 0 0 287.14648,0.71289062 L 320.20117,-12.691406 305.12109,19.632812 a 25.130162,25.130162 0 0 0 22.58399,35.75 l 35.67187,0.265625 -26.30468,24.095704 a 25.130162,25.130162 0 0 0 7.18359,41.669919 l 32.85156,13.89649 -33.52148,12.19336 a 25.130162,25.130162 0 0 0 -9.31055,41.24804 l 25.0332,25.41016 -35.63476,-1.5625 a 25.130162,25.130162 0 0 0 -24.38672,34.54687 l 13.4043,33.05469 -32.32422,-15.08008 a 25.130162,25.130162 0 0 0 -35.75,22.58399 l -0.26563,35.67187 -24.0957,-26.30468 a 25.130162,25.130162 0 0 0 -41.66992,7.18359 l -13.89649,32.85156 -12.19336,-33.52148 a 25.130162,25.130162 0 0 0 -41.24804,-9.31055 l -25.410159,25.0332 1.5625,-35.63476 A 25.130162,25.130162 0 0 0 52.853516,259.28711 l -33.054688,13.4043 15.080078,-32.32422 a 25.130162,25.130162 0 0 0 -22.583984,-35.75 l -35.671875,-0.26563 26.3046874,-24.0957 A 25.130162,25.130162 0 0 0 -4.2558594,138.58594 L -37.107422,124.68945 -3.5859375,112.49609 A 25.130162,25.130162 0 0 0 5.7246094,71.248047 l -25.0332034,-25.410156 35.634766,1.5625 A 25.130162,25.130162 0 0 0 40.712891,12.853516 L 27.308594,-20.201172 59.632812,-5.1210937 a 25.130162,25.130162 0 0 0 35.75,-22.5839843 l 0.265625,-35.671875 24.095703,26.304687 a 25.130162,25.130162 0 0 0 41.66992,-7.183593 z"
       id="path347"
       transform="matrix(0.99695434,0.32759276,-0.32494412,0.99003897,173.36908,118.21556)" />
    <path
       style="color:#000000;fill:#000000;stroke-linecap:round;stroke-linejoin:round;-inkscape-stroke:none;paint-order:stroke fill markers"
       d="m 300.60937,80.529297 c -122.10776,0 -221.972651,99.941553 -221.972651,222.082033 0,122.14048 99.864891,222.08203 221.972651,222.08203 122.10777,0 221.97266,-99.94155 221.97266,-222.08203 0,-122.14048 -99.86489,-222.082033 -221.97266,-222.082033 z m 0,84.083983 c 76.63863,0 137.88868,61.27162 137.88868,137.99805 0,76.72643 -61.25005,138 -137.88868,138 -76.63862,0 -137.89062,-61.27357 -137.89062,-138 0,-76.72643 61.252,-137.99805 137.89062,-137.99805 z"
       id="path401" />
  </g>
</svg>
