<?xml version="1.0" encoding="UTF-8" standalone="no"?>
<svg
   viewBox="0 0 600 600"
   version="1.1"
   id="svg9724"
   sodipodi:docname="trash.svg"
   inkscape:version="1.2.2 (1:1.2.2+202212051550+b0a8486541)"
   width="600"
   height="600"
   xmlns:inkscape="http://www.inkscape.org/namespaces/inkscape"
   xmlns:sodipodi="http://sodipodi.sourceforge.net/DTD/sodipodi-0.dtd"
   xmlns="http://www.w3.org/2000/svg"
   xmlns:svg="http://www.w3.org/2000/svg">
  <defs
     id="defs9728" />
  <sodipodi:namedview
     id="namedview9726"
     pagecolor="#ffffff"
     bordercolor="#666666"
     borderopacity="1.0"
     inkscape:showpageshadow="2"
     inkscape:pageopacity="0.0"
     inkscape:pagecheckerboard="0"
     inkscape:deskcolor="#d1d1d1"
     showgrid="true"
     inkscape:zoom="1.1904806"
     inkscape:cx="261.65903"
     inkscape:cy="305.33887"
     inkscape:window-width="1920"
     inkscape:window-height="1009"
     inkscape:window-x="0"
     inkscape:window-y="1080"
     inkscape:window-maximized="1"
     inkscape:current-layer="g11314">
    <inkscape:grid
       type="xygrid"
       id="grid9972"
       originx="0"
       originy="0" />
  </sodipodi:namedview>
  <!--! Font Awesome Pro 6.2.1 by @fontawesome - https://fontawesome.com License - https://fontawesome.com/license (Commercial License) Copyright 2022 Fonticons, Inc. -->
  <g
     id="g10449"
     transform="matrix(0.95173205,0,0,0.95115787,13.901174,12.168794)"
     style="stroke-width:1.05103">
    <g
       id="path10026"
       inkscape:transform-center-x="-0.59233046"
       inkscape:transform-center-y="-20.347403"
       transform="matrix(1.3807551,0,0,1.2700888,273.60014,263.99768)" />
    <g
       id="g11314"
       transform="matrix(1.5092301,0,0,1.3955555,36.774048,-9.4503933)"
       style="stroke-width:50.6951">
      <path
         style="color:#000000;fill:#000000;stroke-linecap:round;-inkscape-stroke:none"
         d="M -6.1953125,81.638672 A 28.968437,28.968437 0 0 0 -35.164062,110.60742 28.968437,28.968437 0 0 0 -6.1953125,139.57617 H 355.82422 a 28.968437,28.968437 0 0 0 28.96875,-28.96875 28.968437,28.968437 0 0 0 -28.96875,-28.968748 z"
         id="path1801" />
      <path
         style="color:#000000;fill:#000000;stroke-linecap:round;-inkscape-stroke:none"
         d="m 63.423828,-2.3964844 a 28.968451,28.968451 0 0 0 -28.96875,28.9687504 28.968451,28.968451 0 0 0 28.96875,28.96875 H 279.24219 a 28.968451,28.968451 0 0 0 28.96875,-28.96875 28.968451,28.968451 0 0 0 -28.96875,-28.9687504 z"
         id="path1803" />
      <path
         style="color:#000000;fill:#000000;stroke-linecap:round;stroke-linejoin:round;-inkscape-stroke:none"
         d="M 24.951172,172.27539 A 28.968451,28.968451 0 0 0 -0.12304687,204.67383 L 27.724609,423.14648 a 28.971347,28.971347 0 0 0 28.736328,25.30664 H 293.16602 a 28.971347,28.971347 0 0 0 28.73632,-25.30664 L 349.75,204.67383 A 28.968451,28.968451 0 0 0 324.67773,172.27539 28.968451,28.968451 0 0 0 292.2793,197.34766 L 267.65625,390.51562 H 81.970703 L 57.349609,197.34766 A 28.968451,28.968451 0 0 0 24.951172,172.27539 Z"
         id="path1805" />
    </g>
  </g>
</svg>
