<?xml version="1.0" encoding="UTF-8" standalone="no"?>
<svg
   viewBox="0 0 576 512"
   version="1.1"
   id="svg9724"
   sodipodi:docname="trash.svg"
   inkscape:version="1.2.2 (1:1.2.2+202212051550+b0a8486541)"
   xmlns:inkscape="http://www.inkscape.org/namespaces/inkscape"
   xmlns:sodipodi="http://sodipodi.sourceforge.net/DTD/sodipodi-0.dtd"
   xmlns="http://www.w3.org/2000/svg"
   xmlns:svg="http://www.w3.org/2000/svg">
  <defs
     id="defs9728" />
  <sodipodi:namedview
     id="namedview9726"
     pagecolor="#ffffff"
     bordercolor="#666666"
     borderopacity="1.0"
     inkscape:showpageshadow="2"
     inkscape:pageopacity="0.0"
     inkscape:pagecheckerboard="0"
     inkscape:deskcolor="#d1d1d1"
     showgrid="false"
     inkscape:zoom="1.1904806"
     inkscape:cx="291.89892"
     inkscape:cy="267.53901"
     inkscape:window-width="1920"
     inkscape:window-height="1009"
     inkscape:window-x="0"
     inkscape:window-y="1080"
     inkscape:window-maximized="1"
     inkscape:current-layer="path1123">
    <inkscape:grid
       type="xygrid"
       id="grid9972" />
  </sodipodi:namedview>
  <!--! Font Awesome Pro 6.2.1 by @fontawesome - https://fontawesome.com License - https://fontawesome.com/license (Commercial License) Copyright 2022 Fonticons, Inc. -->
  <g
     id="g10449"
     transform="matrix(0.95173205,0,0,0.95115787,13.901174,12.168794)"
     style="stroke-width:1.05103">
    <g
       id="path10026"
       inkscape:transform-center-x="-0.59233046"
       inkscape:transform-center-y="-20.347403"
       transform="matrix(1.3807551,0,0,1.2700888,273.60014,263.99768)" />
    <g
       id="g11314"
       transform="matrix(1.5092301,0,0,1.3955555,36.774048,-9.4503933)"
       style="stroke-width:50.6951">
      <g
         id="path1123">
        <path
           style="color:#000000;fill:#000000;stroke-linecap:round;stroke-linejoin:round;-inkscape-stroke:none;paint-order:stroke fill markers"
           d="m 31.398437,125.12695 c -15.649147,0.002 -27.5589348,14.04261 -25.007812,29.48242 l 34.320312,207.50196 c 2.024948,12.23582 12.605571,21.21001 25.007813,21.21094 h 201.48242 c 12.47765,-0.001 23.0989,-9.08233 25.03906,-21.40821 l 32.64844,-207.5 c 2.41811,-15.38011 -9.47002,-29.28514 -25.03906,-29.28711 z"
           id="path1146"
           sodipodi:nodetypes="ccccccccc" />
      </g>
      <g
         id="path1121">
        <path
           style="color:#000000;fill:#000000;stroke-linecap:round;stroke-linejoin:round;-inkscape-stroke:none;paint-order:stroke fill markers"
           d="M 84.402344,-1.3457031 A 25.349884,25.349884 0 0 0 59.054687,24.001953 v 9.201172 H -8.5488281 A 25.349884,25.349884 0 0 0 -33.896484,58.550781 V 77.345703 A 25.349884,25.349884 0 0 0 -8.5488281,102.69336 H 341.46875 a 25.349884,25.349884 0 0 0 25.3457,-25.347657 V 58.550781 a 25.349884,25.349884 0 0 0 -25.3457,-25.347656 h -67.60547 v -9.201172 a 25.349884,25.349884 0 0 0 -25.3457,-25.3476561 z"
           id="path1128" />
      </g>
    </g>
  </g>
</svg>
